<svg width="18" height="18" viewBox="0 0 18 18" fill="none" xmlns="http://www.w3.org/2000/svg">
<path d="M2 4C2.53043 4 3.03914 3.78929 3.41421 3.41421C3.78929 3.03914 4 2.53043 4 2C4 1.46957 3.78929 0.960859 3.41421 0.585786C3.03914 0.210714 2.53043 0 2 0C1.46957 0 0.960859 0.210714 0.585786 0.585786C0.210714 0.960859 0 1.46957 0 2C0 2.53043 0.210714 3.03914 0.585786 3.41421C0.960859 3.78929 1.46957 4 2 4ZM9 4C9.53043 4 10.0391 3.78929 10.4142 3.41421C10.7893 3.03914 11 2.53043 11 2C11 1.46957 10.7893 0.960859 10.4142 0.585786C10.0391 0.210714 9.53043 0 9 0C8.46957 0 7.96086 0.210714 7.58579 0.585786C7.21071 0.960859 7 1.46957 7 2C7 2.53043 7.21071 3.03914 7.58579 3.41421C7.96086 3.78929 8.46957 4 9 4ZM16 4C16.5304 4 17.0391 3.78929 17.4142 3.41421C17.7893 3.03914 18 2.53043 18 2C18 1.46957 17.7893 0.960859 17.4142 0.585786C17.0391 0.210714 16.5304 0 16 0C15.4696 0 14.9609 0.210714 14.5858 0.585786C14.2107 0.960859 14 1.46957 14 2C14 2.53043 14.2107 3.03914 14.5858 3.41421C14.9609 3.78929 15.4696 4 16 4ZM2 11C2.53043 11 3.03914 10.7893 3.41421 10.4142C3.78929 10.0391 4 9.53043 4 9C4 8.46957 3.78929 7.96086 3.41421 7.58579C3.03914 7.21071 2.53043 7 2 7C1.46957 7 0.960859 7.21071 0.585786 7.58579C0.210714 7.96086 0 8.46957 0 9C0 9.53043 0.210714 10.0391 0.585786 10.4142C0.960859 10.7893 1.46957 11 2 11ZM9 11C9.53043 11 10.0391 10.7893 10.4142 10.4142C10.7893 10.0391 11 9.53043 11 9C11 8.46957 10.7893 7.96086 10.4142 7.58579C10.0391 7.21071 9.53043 7 9 7C8.46957 7 7.96086 7.21071 7.58579 7.58579C7.21071 7.96086 7 8.46957 7 9C7 9.53043 7.21071 10.0391 7.58579 10.4142C7.96086 10.7893 8.46957 11 9 11ZM16 11C16.5304 11 17.0391 10.7893 17.4142 10.4142C17.7893 10.0391 18 9.53043 18 9C18 8.46957 17.7893 7.96086 17.4142 7.58579C17.0391 7.21071 16.5304 7 16 7C15.4696 7 14.9609 7.21071 14.5858 7.58579C14.2107 7.96086 14 8.46957 14 9C14 9.53043 14.2107 10.0391 14.5858 10.4142C14.9609 10.7893 15.4696 11 16 11ZM2 18C2.53043 18 3.03914 17.7893 3.41421 17.4142C3.78929 17.0391 4 16.5304 4 16C4 15.4696 3.78929 14.9609 3.41421 14.5858C3.03914 14.2107 2.53043 14 2 14C1.46957 14 0.960859 14.2107 0.585786 14.5858C0.210714 14.9609 0 15.4696 0 16C0 16.5304 0.210714 17.0391 0.585786 17.4142C0.960859 17.7893 1.46957 18 2 18ZM9 18C9.53043 18 10.0391 17.7893 10.4142 17.4142C10.7893 17.0391 11 16.5304 11 16C11 15.4696 10.7893 14.9609 10.4142 14.5858C10.0391 14.2107 9.53043 14 9 14C8.46957 14 7.96086 14.2107 7.58579 14.5858C7.21071 14.9609 7 15.4696 7 16C7 16.5304 7.21071 17.0391 7.58579 17.4142C7.96086 17.7893 8.46957 18 9 18ZM16 18C16.5304 18 17.0391 17.7893 17.4142 17.4142C17.7893 17.0391 18 16.5304 18 16C18 15.4696 17.7893 14.9609 17.4142 14.5858C17.0391 14.2107 16.5304 14 16 14C15.4696 14 14.9609 14.2107 14.5858 14.5858C14.2107 14.9609 14 15.4696 14 16C14 16.5304 14.2107 17.0391 14.5858 17.4142C14.9609 17.7893 15.4696 18 16 18Z" fill="black"/>
</svg>
